<?xml version="1.0" encoding="UTF-8" standalone="no"?>
<svg
   xmlns:dc="http://purl.org/dc/elements/1.1/"
   xmlns:cc="http://creativecommons.org/ns#"
   xmlns:rdf="http://www.w3.org/1999/02/22-rdf-syntax-ns#"
   xmlns:svg="http://www.w3.org/2000/svg"
   xmlns="http://www.w3.org/2000/svg"
   xmlns:sodipodi="http://sodipodi.sourceforge.net/DTD/sodipodi-0.dtd"
   xmlns:inkscape="http://www.inkscape.org/namespaces/inkscape"
   version="1"
   viewBox="0 0 63.999999 53.447646"
   id="svg4"
   sodipodi:docname="logo.svg"
   width="64"
   height="53.447647"
   inkscape:version="0.92.1 r15371">
  <metadata
     id="metadata10">
    <rdf:RDF>
      <cc:Work
         rdf:about="">
        <dc:format>image/svg+xml</dc:format>
        <dc:type
           rdf:resource="http://purl.org/dc/dcmitype/StillImage" />
        <dc:title></dc:title>
      </cc:Work>
    </rdf:RDF>
  </metadata>
  <defs
     id="defs8" />
  <sodipodi:namedview
     pagecolor="#ffffff"
     bordercolor="#666666"
     borderopacity="1"
     objecttolerance="10"
     gridtolerance="10"
     guidetolerance="10"
     inkscape:pageopacity="0"
     inkscape:pageshadow="2"
     inkscape:window-width="1366"
     inkscape:window-height="715"
     id="namedview6"
     showgrid="false"
     inkscape:zoom="0.921875"
     inkscape:cx="128"
     inkscape:cy="128.00001"
     inkscape:window-x="-8"
     inkscape:window-y="-8"
     inkscape:window-maximized="1"
     inkscape:current-layer="svg4" />
  <path
     d="m 51.488874,7.3008 c 1.587134,0.31744 0,1.26972 1.587134,1.26972 -1.90456,1.2697 -0.317426,2.85684 1.587134,2.22198 -0.634854,1.58714 1.587134,-0.63486 1.269706,0.95228 2.539414,2.222 3.491696,5.07884 4.761402,7.93568 0.317426,3.17426 1.587134,6.34852 2.85684,9.5228 0.317428,2.85684 0.634854,5.71368 0.317428,8.57052 l -0.634854,6.98338 c -1.269706,0.31744 0,1.90456 -1.90456,2.222 -2.539414,0.63484 -1.587134,4.7614 -2.539414,5.07882 L 57.519982,42.8526 c -0.317426,-2.22198 -0.634852,-4.7614 -1.587134,-6.98338 -0.95228,-1.90456 -1.587132,-4.12656 -0.95228,-6.03112 -1.269706,-1.90456 -2.539414,-3.80912 -4.126546,-4.12654 -0.952282,-1.58714 1.269706,-2.85684 -0.952282,-2.85684 -1.587132,-0.95228 -5.396254,-2.53942 -6.348534,-0.63486 -1.90456,0 -3.174268,-1.90456 -5.396254,-1.58712 -1.587134,0.31742 -2.221988,-0.95228 -3.491694,-0.31744 0,-0.95228 -2.856842,-2.85684 -4.12655,-2.5394 -2.539414,0.95228 -4.126548,2.5394 -5.396254,5.07882 -1.90456,2.53942 -4.443974,-0.95228 -6.665962,0 -2.539414,0.31742 -5.078828,0 -6.983388,0.95228 -2.8568406,1.90456 0.634854,4.44398 -1.269707,6.98338 L 9.5885436,33.3298 c 0.3174268,1.90456 -3.809121,4.44398 -3.1742674,7.30082 l -1.269707,8.88794 C 4.8271424,50.78828 4.192289,55.54968 2.922582,52.3754 5.7794226,51.1057 4.192289,46.97916 2.2877284,45.39202 1.3354482,44.75716 1.0180215,43.17004 0.38316798,41.5829 0.70059472,39.67834 -0.25168552,37.77378 0.06574124,35.55178 0.38316798,33.01238 1.652875,30.15554 0.70059472,27.61612 c 0,-2.53942 1.58713368,-5.07882 1.90456048,-7.61824 0.3174268,-2.53942 2.2219872,-5.07882 4.1265476,-6.66596 1.9045606,-1.90456 3.4916942,-4.44398 5.7136812,-6.34854 2.221987,-1.90456 5.078828,-3.4917 7.618242,-4.7614 L 26.729588,0 h 6.348536 l 8.253094,2.5394 c 2.221988,0.31744 5.078828,0.31744 6.98339,2.222 0.317426,0.95228 4.443974,2.22198 2.539414,2.5394"
     id="path2"
     inkscape:connector-curvature="0"
     style="stroke-width:0.31742674" />
</svg>
